<?xml version="1.0" encoding="utf-8"?>
<!-- Generator: Adobe Illustrator 25.2.2, SVG Export Plug-In . SVG Version: 6.00 Build 0)  -->
<svg version="1.1" id="Layer_1" xmlns="http://www.w3.org/2000/svg" xmlns:xlink="http://www.w3.org/1999/xlink" x="0px" y="0px"
	 viewBox="0 0 296 226" style="enable-background:new 0 0 296 226;" xml:space="preserve">
<style type="text/css">
	.st0{fill:#FFFFFF;}
	.st1{fill:#231F20;}
	.st2{fill:none;stroke:#231F20;stroke-width:8.0705;stroke-linecap:round;stroke-linejoin:round;stroke-miterlimit:10;}
</style>
<g>
	<path class="st0" d="M133.3,93.4v58c0,31.6-25.6,57.2-57.2,57.2l0,0c-31.6,0-57.2-25.6-57.2-57.2v-58c14.1,9.2,34.5,15,57.2,15
		C98.4,108.5,119.2,102.4,133.3,93.4z"/>
	<path class="st0" d="M133.2,69.9c0.3,3.2-1.4,6.2-4.1,7.7c-13.8,7.7-32.4,12.6-53,12.6s-39.1-4.8-53-12.6C20.3,76,18.7,73,19,69.9
		c2.6-29.2,27.2-52.2,57.1-52.2l0,0C106,17.7,130.6,40.7,133.2,69.9z"/>
	<circle class="st0" cx="76.1" cy="63.9" r="10"/>
	<path class="st0" d="M18.8,75.1"/>
</g>
<g>
	<circle class="st1" cx="105" cy="68" r="6"/>
	<path class="st1" d="M76.1,77.9c-7.7,0-14-6.3-14-14s6.3-14,14-14s14,6.3,14,14C90.1,71.6,83.8,77.9,76.1,77.9z M76.1,58
		c-3.3,0-5.9,2.7-5.9,5.9s2.7,5.9,5.9,5.9s5.9-2.7,5.9-5.9S79.3,58,76.1,58z"/>
	<path class="st1" d="M76.1,212.7c-33.8,0-61.3-27.5-61.3-61.3v-58c0-1.5,0.8-2.8,2.1-3.5s2.9-0.6,4.1,0.2c14,9.1,34,14.4,55,14.4
		c20.3,0,40.9-5.4,55.1-14.4c1.2-0.8,2.8-0.8,4.1-0.1c1.3,0.7,2.1,2.1,2.1,3.5v58C137.3,185.2,109.8,212.7,76.1,212.7z M22.8,100.5
		v51c0,29.3,23.9,53.2,53.2,53.2s53.2-23.9,53.2-53.2v-51c-14.9,7.7-33.9,12.1-53.2,12.1C56.5,112.5,37.5,108.2,22.8,100.5z"/>
	<path class="st1" d="M76.1,94.3c-20.4,0-39.9-4.6-54.9-13.1c-4.2-2.3-6.6-6.9-6.2-11.6c1.3-15.2,8.3-29.3,19.6-39.7
		C46,19.4,60.7,13.7,76.1,13.7s30.2,5.8,41.5,16.2s18.2,24.5,19.6,39.7l0,0c0.4,4.7-2,9.3-6.2,11.6C115.9,89.6,96.4,94.3,76.1,94.3z
		 M76.1,21.8c-27.3,0-50.6,21.3-53.1,48.5c-0.1,1.6,0.7,3.1,2.1,3.9c13.9,7.8,32,12,51,12s37.1-4.3,51-12c1.4-0.8,2.2-2.3,2.1-3.9
		l0,0C126.7,43.1,103.4,21.8,76.1,21.8z"/>
	<path class="st1" d="M66.1,67.7c-0.1,0-0.2,0-0.3,0c-15.5-1.2-30.1-5.1-42.1-11.3c-2-1-2.8-3.5-1.7-5.4c1-2,3.5-2.8,5.4-1.7
		c11.1,5.7,24.6,9.3,39,10.4c2.2,0.2,3.9,2.1,3.7,4.3C70,66.1,68.2,67.7,66.1,67.7z"/>
	<path class="st1" d="M76.1,153.5c-22.5,0-44.1-5.7-59.3-15.6c-1.9-1.2-2.4-3.7-1.2-5.6s3.7-2.4,5.6-1.2c14,9.1,34,14.3,54.9,14.3
		s41-5.2,54.9-14.3c1.9-1.2,4.4-0.7,5.6,1.2c1.2,1.9,0.7,4.4-1.2,5.6C120.1,147.8,98.5,153.5,76.1,153.5z"/>
	<path class="st1" d="M76.1,171.6c-22.4,0-43.9-5.7-59.2-15.5c-1.9-1.2-2.4-3.7-1.2-5.6s3.7-2.4,5.6-1.2c14,9,33.9,14.2,54.8,14.2
		s40.8-5.2,54.8-14.2c1.9-1.2,4.4-0.7,5.6,1.2c1.2,1.9,0.7,4.4-1.2,5.6C120,166,98.4,171.6,76.1,171.6z"/>
	<path class="st2" d="M18.8,75.1"/>
</g>
<g>
	<path d="M177.9,109.7c2.9,1.4,6.4,2.1,10.4,2.1s7.5-0.7,10.2-2.1s5-3.1,6.7-5s2.9-4,3.7-6s1.1-3.8,1.1-5.1c0-0.4-0.2-0.6-0.6-0.6
		h-7c-0.4,0-0.7,0.2-0.8,0.6c-0.3,1-0.7,2.2-1.3,3.5c-0.5,1.3-1.3,2.5-2.3,3.6s-2.3,2-3.8,2.8s-3.5,1.1-5.8,1.1
		c-4.7,0-8.3-1.9-10.8-5.8s-3.8-9.3-3.8-16.1c0-6.9,1.3-12.3,3.8-16.1c2.5-3.8,6.1-5.8,10.8-5.8c2.4,0,4.4,0.4,5.9,1.2
		s2.8,1.8,3.8,3c1,1.1,1.7,2.4,2.2,3.6c0.5,1.3,0.9,2.3,1.2,3.2c0.1,0.4,0.4,0.6,0.8,0.6h7c0.4,0,0.6-0.2,0.6-0.7
		c0-1.1-0.3-2.7-1-4.8c-0.7-2-1.9-4.1-3.5-6c-1.7-2-3.9-3.7-6.7-5.2c-2.8-1.5-6.3-2.2-10.5-2.2c-4,0-7.5,0.7-10.4,2.2
		s-5.3,3.5-7.2,6.1c-1.9,2.6-3.3,5.7-4.2,9.2c-0.9,3.5-1.3,7.5-1.3,11.7c0,4.3,0.4,8.2,1.3,11.8c0.9,3.6,2.3,6.7,4.2,9.2
		C172.5,106.2,175,108.3,177.9,109.7z"/>
	<path d="M222.9,111h38c0.4,0,0.7-0.2,0.7-0.6v-6c0-0.4-0.2-0.6-0.7-0.6h-27c-0.2,0-0.2,0-0.2,0c0-0.1,0-0.1,0-0.2l18.5-16.2
		c0.7-0.7,1.6-1.6,2.7-2.6c1.1-1,2.1-2.3,3.1-3.7c1-1.4,1.8-3,2.5-4.7s1.1-3.6,1.1-5.7c0-2.3-0.4-4.5-1.3-6.6
		c-0.9-2.1-2.2-3.9-3.8-5.5c-1.6-1.5-3.7-2.8-6.1-3.7s-5.2-1.4-8.2-1.4c-2.7,0-5.2,0.4-7.5,1.2s-4.3,1.9-6,3.4c-1.7,1.4-3,3.2-4,5.2
		c-0.9,2-1.4,4.3-1.4,6.7c0,0.4,0.2,0.6,0.7,0.6h7.1c0.4,0,0.7-0.2,0.7-0.6c0-1.2,0.2-2.3,0.7-3.4c0.5-1.1,1.2-2.1,2.1-2.9
		c0.9-0.9,2-1.5,3.3-2.1c1.3-0.5,2.7-0.8,4.3-0.8c1.9,0,3.6,0.3,4.9,1c1.4,0.6,2.5,1.5,3.4,2.5s1.5,2.1,2,3.2
		c0.4,1.2,0.7,2.2,0.7,3.2c0,1.2-0.3,2.4-0.8,3.5c-0.5,1.2-1.2,2.3-2,3.3s-1.6,1.9-2.4,2.6l-25.2,23.4c-0.2,0.1-0.3,0.4-0.3,0.6
		c-0.1,0.3-0.1,0.4-0.1,0.6v5.6C222.2,110.8,222.5,111,222.9,111z"/>
	<path d="M205.8,128.3c-1.5-1.6-3.3-2.8-5.3-3.7c-2-0.9-4.1-1.3-6.3-1.3h-22.6c-0.4,0-0.7,0.2-0.7,0.7v55.5c0,0.4,0.2,0.7,0.7,0.7
		h6.8c0.4,0,0.7-0.2,0.7-0.7v-21.6c0-0.1,0-0.2,0.1-0.2h15c2.2,0,4.3-0.4,6.3-1.3s3.8-2.1,5.3-3.6s2.7-3.4,3.6-5.4s1.3-4.3,1.3-6.7
		c0-2.4-0.5-4.7-1.3-6.8C208.5,131.7,207.3,129.8,205.8,128.3z M202.6,140.6c0,1.3-0.3,2.6-0.8,3.8c-0.5,1.2-1.2,2.2-2.1,3.1
		s-1.9,1.6-3,2.1s-2.3,0.8-3.5,0.8h-14c-0.1,0-0.1,0-0.1-0.1v-19.5c0-0.1,0-0.1,0.1-0.1h14c1.2,0,2.4,0.3,3.5,0.8s2.1,1.3,3,2.2
		c0.9,0.9,1.6,2,2.1,3.2C202.3,137.9,202.6,139.2,202.6,140.6z"/>
	<path d="M267.2,179.2l-18.6-55.5c-0.2-0.5-0.5-0.6-0.7-0.6H238c-0.2,0-0.5,0.1-0.7,0.6l-18.9,55.4c-0.1,0.2-0.1,0.4,0,0.6
		s0.3,0.2,0.6,0.2h7.5c0.3,0,0.5-0.2,0.6-0.6l3.8-11.4c0.1-0.2,0.2-0.2,0.2-0.2h23.2c0.3,0,0.3,0.1,0.3,0.2l3.7,11.5
		c0.2,0.5,0.4,0.6,0.6,0.6h7.5c0.3,0,0.5-0.1,0.6-0.2C267.2,179.7,267.2,179.5,267.2,179.2z M252.4,160.9c0,0-0.1,0-0.2,0h-18.8
		c-0.1,0-0.2,0-0.2,0l0,0c0,0,0,0,0-0.1l9.4-29.2c0.1-0.3,0.2-0.3,0.3,0l9.4,29.2C252.4,160.8,252.4,160.9,252.4,160.9z"/>
</g>
</svg>
